<svg xmlns="http://www.w3.org/2000/svg" width="120" height="120" viewBox="0 0 120 120">
    <g fill="none" fill-rule="evenodd">
        <circle cx="60" cy="60" r="60" fill="#4384E5"/>
        <g fill="#FFF" fill-rule="nonzero">
            <path d="M60 30.64c-4.693 0-8.462 3.074-8.462 6.903V49.84h16.995V37.6c-.07-3.828-3.84-6.96-8.533-6.96zM60 70.747a8.437 8.437 0 0 0 8.462-8.463v-8.888H51.467v8.888c.07 4.694 3.84 8.463 8.533 8.463z"/>
            <path d="M74.649 57.236c0 6.328 0 7.608-.071 7.822a11.966 11.966 0 0 1-3.414 7.182 11.835 11.835 0 0 1-8.39 3.484h-5.618a11.784 11.784 0 0 1-8.392-3.484c-1.848-1.849-3.057-4.409-3.413-7.111 0-.213 0-1.493-.071-7.893h-4.196c0 7.893.072 8.106.072 8.32.426 3.626 2.062 7.11 4.622 9.67 3.058 3.058 7.04 4.694 11.306 4.694h.143v5.404h-9.743v5.334h24.96v-5.334h-9.742V79.92h.142c4.267 0 8.32-1.636 11.307-4.693a16.078 16.078 0 0 0 4.622-9.814c0-.142.071-.426.071-8.177H74.65z"/>
        </g>
    </g>
</svg>
